<?xml version="1.0" standalone="no"?>
<!DOCTYPE svg PUBLIC "-//W3C//DTD SVG 20010904//EN"
 "http://www.w3.org/TR/2001/REC-SVG-20010904/DTD/svg10.dtd">
<svg version="1.0" xmlns="http://www.w3.org/2000/svg"
 width="765.000000pt" height="666.000000pt" viewBox="0 0 765.000000 666.000000"
 preserveAspectRatio="xMidYMid meet">
<metadata>
Created by potrace 1.16, written by Peter Selinger 2001-2019
</metadata>
<g transform="translate(0.000000,666.000000) scale(0.100000,-0.100000)"
fill="#000000" stroke="none">
<path d="M3739 6637 c-27 -18 -374 -612 -1886 -3232 -1834 -3175 -1853 -3209
-1853 -3262 0 -49 4 -58 39 -96 l40 -42 524 -3 524 -3 1293 2293 c711 1261
1302 2303 1313 2315 45 50 123 54 168 9 19 -19 1544 -2714 2454 -4336 98 -175
141 -241 165 -257 l33 -23 496 0 c480 0 497 1 529 20 43 26 76 99 69 147 -9
52 -3679 6408 -3728 6456 -35 33 -43 37 -92 37 -40 0 -63 -6 -88 -23z"/>
<path d="M3745 2642 c-22 -11 -52 -32 -66 -48 -23 -25 -1499 -2574 -1499
-2589 0 -3 738 -5 1640 -5 902 0 1640 4 1640 8 0 5 -335 589 -744 1298 -821
1423 -768 1340 -877 1350 -40 4 -64 0 -94 -14z"/>
</g>
</svg>
